<?xml version="1.0" encoding="UTF-8"?>
<svg width="16px" height="16px" viewBox="0 0 16 16" version="1.1" xmlns="http://www.w3.org/2000/svg" xmlns:xlink="http://www.w3.org/1999/xlink">
    <!-- Generator: Sketch 53.2 (72643) - https://sketchapp.com -->
    <title>Icons/icon-day-thu</title>
    <desc>Created with Sketch.</desc>
    <g id="Icons/icon-day-thu" stroke="none" stroke-width="1" fill="none" fill-rule="evenodd">
        <path d="M14,6 L2,6 L2,15 L14,15 L14,6 Z M11,1 L14,1 C14.5522847,1 15,1.44771525 15,2 L15,15 C15,15.5522847 14.5522847,16 14,16 L2,16 C1.44771525,16 1,15.5522847 1,15 L1,2 C1,1.44771525 1.44771525,1 2,1 L5,1 L5,0.5 C5,0.223857625 5.22385763,5.07265313e-17 5.5,0 C5.77614237,-5.07265313e-17 6,0.223857625 6,0.5 L6,1 L10,1 L10,0.5 C10,0.223857625 10.2238576,5.07265313e-17 10.5,0 C10.7761424,-5.07265313e-17 11,0.223857625 11,0.5 L11,1 Z M5.85,9.625 L4.905,9.625 L4.905,12.44 L4.145,12.44 L4.145,9.625 L3.2,9.625 L3.2,8.95 L5.85,8.95 L5.85,9.625 Z M8.46,12.44 L8.46,11.01 L7.13,11.01 L7.13,12.44 L6.37,12.44 L6.37,8.95 L7.13,8.95 L7.13,10.34 L8.46,10.34 L8.46,8.95 L9.22,8.95 L9.22,12.44 L8.46,12.44 Z M9.97,8.95 L10.71,8.95 L10.71,11.09 C10.71,11.58 10.89,11.825 11.34,11.825 C11.79,11.825 11.97,11.58 11.97,11.09 L11.97,8.95 L12.71,8.95 L12.71,11.01 C12.71,12.04 12.34,12.5 11.34,12.5 C10.34,12.5 9.97,12.04 9.97,11.01 L9.97,8.95 Z" id="Shape" fill="#1D1D1D"></path>
    </g>
</svg>