<?xml version="1.0" encoding="UTF-8"?>
<svg width="16px" height="16px" viewBox="0 0 16 16" version="1.1" xmlns="http://www.w3.org/2000/svg" xmlns:xlink="http://www.w3.org/1999/xlink">
    <!-- Generator: Sketch 53.2 (72643) - https://sketchapp.com -->
    <title>Icons/icon-day-sat</title>
    <desc>Created with Sketch.</desc>
    <g id="Icons/icon-day-sat" stroke="none" stroke-width="1" fill="none" fill-rule="evenodd">
        <path d="M14,6 L2,6 L2,15 L14,15 L14,6 Z M11,1 L14,1 C14.5522847,1 15,1.44771525 15,2 L15,15 C15,15.5522847 14.5522847,16 14,16 L2,16 C1.44771525,16 1,15.5522847 1,15 L1,2 C1,1.44771525 1.44771525,1 2,1 L5,1 L5,0.5 C5,0.223857625 5.22385763,5.07265313e-17 5.5,0 C5.77614237,-5.07265313e-17 6,0.223857625 6,0.5 L6,1 L10,1 L10,0.5 C10,0.223857625 10.2238576,5.07265313e-17 10.5,0 C10.7761424,-5.07265313e-17 11,0.223857625 11,0.5 L11,1 Z M5.025,12.56 C4.415,12.56 4,12.325 3.7,11.995 L4.2,11.49 C4.435,11.755 4.735,11.89 5.075,11.89 C5.445,11.89 5.625,11.725 5.625,11.47 C5.625,11.28 5.545,11.14 5.22,11.095 L4.875,11.05 C4.14,10.955 3.805,10.595 3.805,10.01 C3.805,9.385 4.295,8.95 5.115,8.95 C5.64,8.95 6.04,9.125 6.325,9.44 L5.82,9.95 C5.655,9.755 5.43,9.62 5.07,9.62 C4.73,9.62 4.565,9.75 4.565,9.96 C4.565,10.2 4.69,10.29 4.98,10.335 L5.325,10.39 C6.04,10.505 6.385,10.825 6.385,11.425 C6.385,12.095 5.895,12.56 5.025,12.56 Z M9.955,12.5 L9.165,12.5 L8.915,11.67 L7.75,11.67 L7.5,12.5 L6.73,12.5 L7.88,9.01 L8.82,9.01 L9.955,12.5 Z M8.73,11.025 L8.34,9.7 L8.315,9.7 L7.93,11.025 L8.73,11.025 Z M12.515,9.685 L11.57,9.685 L11.57,12.5 L10.81,12.5 L10.81,9.685 L9.865,9.685 L9.865,9.01 L12.515,9.01 L12.515,9.685 Z" id="Shape" fill="#1D1D1D"></path>
    </g>
</svg>