<?xml version="1.0" encoding="UTF-8"?>
<svg width="16px" height="16px" viewBox="0 0 16 16" version="1.1" xmlns="http://www.w3.org/2000/svg" xmlns:xlink="http://www.w3.org/1999/xlink">
    <!-- Generator: Sketch 53.2 (72643) - https://sketchapp.com -->
    <title>Icons/icon-day-mon</title>
    <desc>Created with Sketch.</desc>
    <g id="Icons/icon-day-mon" stroke="none" stroke-width="1" fill="none" fill-rule="evenodd">
        <path d="M14,6 L2,6 L2,15 L14,15 L14,6 Z M11,1 L14,1 C14.5522847,1 15,1.44771525 15,2 L15,15 C15,15.5522847 14.5522847,16 14,16 L2,16 C1.44771525,16 1,15.5522847 1,15 L1,2 C1,1.44771525 1.44771525,1 2,1 L5,1 L5,0.5 C5,0.223857625 5.22385763,5.07265313e-17 5.5,0 C5.77614237,-5.07265313e-17 6,0.223857625 6,0.5 L6,1 L10,1 L10,0.5 C10,0.223857625 10.2238576,5.07265313e-17 10.5,0 C10.7761424,-5.07265313e-17 11,0.223857625 11,0.5 L11,1 Z M5.295,12.5 L5.295,10.21 L5.28,10.21 L5.025,10.72 L4.345,11.955 L3.68,10.725 L3.415,10.175 L3.4,10.175 L3.4,12.5 L2.685,12.5 L2.685,9.01 L3.49,9.01 L4.345,10.645 L4.355,10.645 L5.2,9.01 L6.01,9.01 L6.01,12.5 L5.295,12.5 Z M8.18,12.56 C7.255,12.56 6.645,11.94 6.645,10.755 C6.645,9.57 7.255,8.95 8.18,8.95 C9.105,8.95 9.715,9.57 9.715,10.755 C9.715,11.94 9.105,12.56 8.18,12.56 Z M8.18,11.885 C8.635,11.885 8.91,11.57 8.91,11.015 L8.91,10.495 C8.91,9.94 8.635,9.625 8.18,9.625 C7.725,9.625 7.45,9.94 7.45,10.495 L7.45,11.015 C7.45,11.57 7.725,11.885 8.18,11.885 Z M12.37,12.5 L11.415,10.85 L11.08,10.15 L11.065,10.15 L11.065,12.5 L10.35,12.5 L10.35,9.01 L11.18,9.01 L12.135,10.66 L12.47,11.36 L12.485,11.36 L12.485,9.01 L13.2,9.01 L13.2,12.5 L12.37,12.5 Z" id="Shape" fill="#1D1D1D"></path>
    </g>
</svg>