<?xml version="1.0" encoding="UTF-8"?>
<svg width="16px" height="16px" viewBox="0 0 16 16" version="1.1" xmlns="http://www.w3.org/2000/svg" xmlns:xlink="http://www.w3.org/1999/xlink">
    <!-- Generator: Sketch 53.2 (72643) - https://sketchapp.com -->
    <title>Icons/icon-day-tue</title>
    <desc>Created with Sketch.</desc>
    <g id="Icons/icon-day-tue" stroke="none" stroke-width="1" fill="none" fill-rule="evenodd">
        <path d="M14,6 L2,6 L2,15 L14,15 L14,6 Z M11,1 L14,1 C14.5522847,1 15,1.44771525 15,2 L15,15 C15,15.5522847 14.5522847,16 14,16 L2,16 C1.44771525,16 1,15.5522847 1,15 L1,2 C1,1.44771525 1.44771525,1 2,1 L5,1 L5,0.5 C5,0.223857625 5.22385763,5.07265313e-17 5.5,0 C5.77614237,-5.07265313e-17 6,0.223857625 6,0.5 L6,1 L10,1 L10,0.5 C10,0.223857625 10.2238576,5.07265313e-17 10.5,0 C10.7761424,-5.07265313e-17 11,0.223857625 11,0.5 L11,1 Z M6.085,9.625 L5.14,9.625 L5.14,12.44 L4.38,12.44 L4.38,9.625 L3.435,9.625 L3.435,8.95 L6.085,8.95 L6.085,9.625 Z M6.585,8.95 L7.325,8.95 L7.325,11.09 C7.325,11.58 7.505,11.825 7.955,11.825 C8.405,11.825 8.585,11.58 8.585,11.09 L8.585,8.95 L9.325,8.95 L9.325,11.01 C9.325,12.04 8.955,12.5 7.955,12.5 C6.955,12.5 6.585,12.04 6.585,11.01 L6.585,8.95 Z M12.45,12.44 L10.075,12.44 L10.075,8.95 L12.45,8.95 L12.45,9.625 L10.835,9.625 L10.835,10.34 L12.22,10.34 L12.22,11.01 L10.835,11.01 L10.835,11.765 L12.45,11.765 L12.45,12.44 Z" id="Shape" fill="#1D1D1D"></path>
    </g>
</svg>