<?xml version="1.0" encoding="UTF-8"?>
<svg width="16px" height="16px" viewBox="0 0 16 16" version="1.1" xmlns="http://www.w3.org/2000/svg" xmlns:xlink="http://www.w3.org/1999/xlink">
    <!-- Generator: Sketch 53.2 (72643) - https://sketchapp.com -->
    <title>Icons/icon-lessons</title>
    <desc>Created with Sketch.</desc>
    <g id="Icons/icon-lessons" stroke="none" stroke-width="1" fill="none" fill-rule="evenodd">
        <path d="M13.6571761,5.38968594 C13.6391402,5.39502908 13.620041,5.39789738 13.6002718,5.39789738 L9.3,5.39789738 L9.3,1.0388587 C9.22618284,1.01323111 9.14871578,0.999999998 9.07015439,0.999999997 L2.00868217,1.00054278 L1.9999774,15.0005425 L14,15 L14,6.07111111 C14,5.85965006 13.9187552,5.65749312 13.7810579,5.5165173 L13.6571761,5.38968594 Z M10.3029457,0.524444444 L14.4964341,4.81777778 C14.8176744,5.14666667 15,5.6 15,6.07111111 L15,15 C15,15.5522847 14.5522847,16 14,16 L2,16.0005425 C1.44771525,16.0005425 1,15.5528272 1,15.0005425 L1.00868232,1.00000015 C1.00898189,0.447927379 1.45660932,0.000542782886 2.00868217,0.000542782886 L9.07007752,-7.63833441e-14 C9.53023256,-7.63833441e-14 9.97302326,0.186666667 10.3029457,0.524444444 Z M4,10 L12,10 L12,11 L4,11 L4,10 Z M4,12 L12,12 L12,13 L4,13 L4,12 Z" id="Shape" fill="#1D1D1D"></path>
    </g>
</svg>