<?xml version="1.0" encoding="UTF-8"?>
<svg width="16px" height="16px" viewBox="0 0 16 16" version="1.1" xmlns="http://www.w3.org/2000/svg" xmlns:xlink="http://www.w3.org/1999/xlink">
    <!-- Generator: Sketch 53.2 (72643) - https://sketchapp.com -->
    <title>Icons/icon-day-sun</title>
    <desc>Created with Sketch.</desc>
    <g id="Icons/icon-day-sun" stroke="none" stroke-width="1" fill="none" fill-rule="evenodd">
        <path d="M14,6 L2,6 L2,15 L14,15 L14,6 Z M11,1 L14,1 C14.5522847,1 15,1.44771525 15,2 L15,15 C15,15.5522847 14.5522847,16 14,16 L2,16 C1.44771525,16 1,15.5522847 1,15 L1,2 C1,1.44771525 1.44771525,1 2,1 L5,1 L5,0.5 C5,0.223857625 5.22385763,5.07265313e-17 5.5,0 C5.77614237,-5.07265313e-17 6,0.223857625 6,0.5 L6,1 L10,1 L10,0.5 C10,0.223857625 10.2238576,5.07265313e-17 10.5,0 C10.7761424,-5.07265313e-17 11,0.223857625 11,0.5 L11,1 Z M4.425,12.56 C3.815,12.56 3.4,12.325 3.1,11.995 L3.6,11.49 C3.835,11.755 4.135,11.89 4.475,11.89 C4.845,11.89 5.025,11.725 5.025,11.47 C5.025,11.28 4.945,11.14 4.62,11.095 L4.275,11.05 C3.54,10.955 3.205,10.595 3.205,10.01 C3.205,9.385 3.695,8.95 4.515,8.95 C5.04,8.95 5.44,9.125 5.725,9.44 L5.22,9.95 C5.055,9.755 4.83,9.62 4.47,9.62 C4.13,9.62 3.965,9.75 3.965,9.96 C3.965,10.2 4.09,10.29 4.38,10.335 L4.725,10.39 C5.44,10.505 5.785,10.825 5.785,11.425 C5.785,12.095 5.295,12.56 4.425,12.56 Z M6.395,9.01 L7.135,9.01 L7.135,11.15 C7.135,11.64 7.315,11.885 7.765,11.885 C8.215,11.885 8.395,11.64 8.395,11.15 L8.395,9.01 L9.135,9.01 L9.135,11.07 C9.135,12.1 8.765,12.56 7.765,12.56 C6.765,12.56 6.395,12.1 6.395,11.07 L6.395,9.01 Z M11.905,12.5 L10.95,10.85 L10.615,10.15 L10.6,10.15 L10.6,12.5 L9.885,12.5 L9.885,9.01 L10.715,9.01 L11.67,10.66 L12.005,11.36 L12.02,11.36 L12.02,9.01 L12.735,9.01 L12.735,12.5 L11.905,12.5 Z" id="Shape" fill="#1D1D1D"></path>
    </g>
</svg>