<?xml version="1.0" encoding="UTF-8"?>
<svg width="16px" height="16px" viewBox="0 0 16 16" version="1.1" xmlns="http://www.w3.org/2000/svg" xmlns:xlink="http://www.w3.org/1999/xlink">
    <!-- Generator: Sketch 53.2 (72643) - https://sketchapp.com -->
    <title>Icons/icon-day-fri</title>
    <desc>Created with Sketch.</desc>
    <g id="Icons/icon-day-fri" stroke="none" stroke-width="1" fill="none" fill-rule="evenodd">
        <path d="M14,6 L2,6 L2,15 L14,15 L14,6 Z M11,1 L14,1 C14.5522847,1 15,1.44771525 15,2 L15,15 C15,15.5522847 14.5522847,16 14,16 L2,16 C1.44771525,16 1,15.5522847 1,15 L1,2 C1,1.44771525 1.44771525,1 2,1 L5,1 L5,0.5 C5,0.223857625 5.22385763,5.07265313e-17 5.5,0 C5.77614237,-5.07265313e-17 6,0.223857625 6,0.5 L6,1 L10,1 L10,0.5 C10,0.223857625 10.2238576,5.07265313e-17 10.5,0 C10.7761424,-5.07265313e-17 11,0.223857625 11,0.5 L11,1 Z M4.86,12.44 L4.1,12.44 L4.1,8.95 L6.415,8.95 L6.415,9.625 L4.86,9.625 L4.86,10.34 L6.185,10.34 L6.185,11.01 L4.86,11.01 L4.86,12.44 Z M7.785,11.16 L7.785,12.44 L7.025,12.44 L7.025,8.95 L8.68,8.95 C9.325,8.95 9.735,9.4 9.735,10.065 C9.735,10.535 9.525,10.91 9.1,11.07 L9.785,12.44 L8.94,12.44 L8.33,11.16 L7.785,11.16 Z M7.785,10.52 L8.585,10.52 C8.81,10.52 8.95,10.4 8.95,10.175 L8.95,9.955 C8.95,9.73 8.81,9.61 8.585,9.61 L7.785,9.61 L7.785,10.52 Z M11.92,12.44 L10.26,12.44 L10.26,11.835 L10.71,11.835 L10.71,9.555 L10.26,9.555 L10.26,8.95 L11.92,8.95 L11.92,9.555 L11.47,9.555 L11.47,11.835 L11.92,11.835 L11.92,12.44 Z" id="Shape" fill="#1D1D1D"></path>
    </g>
</svg>