<?xml version="1.0" encoding="UTF-8"?>
<svg width="16px" height="16px" viewBox="0 0 16 16" version="1.1" xmlns="http://www.w3.org/2000/svg" xmlns:xlink="http://www.w3.org/1999/xlink">
    <!-- Generator: Sketch 53.2 (72643) - https://sketchapp.com -->
    <title>Icons/icon-day-wed</title>
    <desc>Created with Sketch.</desc>
    <g id="Icons/icon-day-wed" stroke="none" stroke-width="1" fill="none" fill-rule="evenodd">
        <path d="M14,6 L2,6 L2,15 L14,15 L14,6 Z M11,1 L14,1 C14.5522847,1 15,1.44771525 15,2 L15,15 C15,15.5522847 14.5522847,16 14,16 L2,16 C1.44771525,16 1,15.5522847 1,15 L1,2 C1,1.44771525 1.44771525,1 2,1 L5,1 L5,0.5 C5,0.223857625 5.22385763,5.07265313e-17 5.5,0 C5.77614237,-5.07265313e-17 6,0.223857625 6,0.5 L6,1 L10,1 L10,0.5 C10,0.223857625 10.2238576,5.07265313e-17 10.5,0 C10.7761424,-5.07265313e-17 11,0.223857625 11,0.5 L11,1 Z M4.155,12.44 L3.285,12.44 L2.495,8.95 L3.245,8.95 L3.575,10.625 L3.76,11.595 L3.775,11.595 L3.995,10.625 L4.38,8.95 L5.21,8.95 L5.6,10.625 L5.815,11.595 L5.83,11.595 L6.015,10.625 L6.35,8.95 L7.07,8.95 L6.26,12.44 L5.395,12.44 L4.955,10.55 L4.785,9.785 L4.77,9.785 L4.595,10.55 L4.155,12.44 Z M9.975,12.44 L7.6,12.44 L7.6,8.95 L9.975,8.95 L9.975,9.625 L8.36,9.625 L8.36,10.34 L9.745,10.34 L9.745,11.01 L8.36,11.01 L8.36,11.765 L9.975,11.765 L9.975,12.44 Z M10.635,12.44 L10.635,8.95 L11.95,8.95 C12.875,8.95 13.485,9.535 13.485,10.695 C13.485,11.855 12.875,12.44 11.95,12.44 L10.635,12.44 Z M11.395,11.765 L11.95,11.765 C12.4,11.765 12.68,11.52 12.68,10.965 L12.68,10.425 C12.68,9.87 12.4,9.625 11.95,9.625 L11.395,9.625 L11.395,11.765 Z" id="Shape" fill="#1D1D1D"></path>
    </g>
</svg>