<?xml version="1.0" encoding="UTF-8"?>
<svg width="16px" height="16px" viewBox="0 0 16 16" version="1.1" xmlns="http://www.w3.org/2000/svg" xmlns:xlink="http://www.w3.org/1999/xlink">
    <!-- Generator: Sketch 53.2 (72643) - https://sketchapp.com -->
    <title>Icons/icon-calendar</title>
    <desc>Created with Sketch.</desc>
    <g id="Icons/icon-calendar" stroke="none" stroke-width="1" fill="none" fill-rule="evenodd">
        <path d="M14,6 L2,6 L2,15 L14,15 L14,6 Z M11,1 L14,1 C14.5522847,1 15,1.44771525 15,2 L15,15 C15,15.5522847 14.5522847,16 14,16 L2,16 C1.44771525,16 1,15.5522847 1,15 L1,2 C1,1.44771525 1.44771525,1 2,1 L5,1 L5,0.5 C5,0.223857625 5.22385763,5.07265313e-17 5.5,0 C5.77614237,-5.07265313e-17 6,0.223857625 6,0.5 L6,1 L10,1 L10,0.5 C10,0.223857625 10.2238576,5.07265313e-17 10.5,0 C10.7761424,-5.07265313e-17 11,0.223857625 11,0.5 L11,1 Z M4,8 L6,8 L6,10 L4,10 L4,8 Z M7,8 L9,8 L9,10 L7,10 L7,8 Z M10,8 L12,8 L12,10 L10,10 L10,8 Z M4,11 L6,11 L6,13 L4,13 L4,11 Z M7,11 L9,11 L9,13 L7,13 L7,11 Z M10,11 L12,11 L12,13 L10,13 L10,11 Z" id="Shape" fill="#1D1D1D"></path>
    </g>
</svg>